#File written by RizomUV 2022.0.11.g5424fda. Compilation :Nov 24 2021,04:16:21
mtllib 
#begin vertices
v -2.328026 0.02555 1.080415
v 2.328026 0.02555 1.080415
v -2.328026 0.185468 1.080415
v 2.328026 0.185468 1.080415
v -2.328026 0.185468 -1.080415
v 2.328026 0.185468 -1.080415
v -2.328026 0.02555 -1.080415
v 2.328026 0.02555 -1.080415
v -2.292331 0.186081 1.044156
v 2.292331 0.186081 1.044156
v 2.292331 0.186081 -1.044156
v -2.292331 0.186081 -1.044156
v -2.292331 0.113143 1.044156
v 2.292331 0.113143 1.044156
v 2.292331 0.113143 -1.044156
v -2.292331 0.113143 -1.044156
v -2.302274 0.813487 1.059145
v 2.302274 0.813487 1.059145
v -2.302274 0.961791 1.059145
v 2.302274 0.961791 1.059145
v -2.302274 0.961791 -1.059145
v 2.302274 0.961791 -1.059145
v -2.302274 0.813487 -1.059145
v 2.302274 0.813487 -1.059145
v 2.177395 0.813487 1.059145
v 2.177395 0.961791 1.059145
v 2.177395 0.961791 -1.059145
v 2.177395 0.813487 -1.059145
v -2.177395 0.813487 1.059145
v -2.177395 0.961791 1.059145
v -2.177395 0.961791 -1.059145
v -2.177395 0.813487 -1.059145
v -2.302274 0.813487 0.934858
v -2.302274 0.961791 0.934858
v -2.177395 0.961791 0.934858
v 2.177395 0.961791 0.934858
v 2.302274 0.961791 0.934858
v 2.302274 0.813487 0.934858
v 2.177395 0.813487 0.934858
v -2.177395 0.813487 0.934858
v -2.302274 0.813487 -0.934857
v -2.302274 0.961791 -0.934857
v -2.177395 0.961791 -0.934857
v 2.177395 0.961791 -0.934857
v 2.302274 0.961791 -0.934857
v 2.302274 0.813487 -0.934857
v 2.177395 0.813487 -0.934857
v -2.177395 0.813487 -0.934857
v -2.302274 -0.106313 -1.059145
v -2.177395 -0.106313 -1.059145
v -2.177395 -0.106313 -0.934857
v -2.302274 -0.106313 -0.934857
v 2.177395 -0.106313 -1.059145
v 2.177395 -0.106313 -0.934857
v 2.302274 -0.106313 -1.059145
v 2.302274 -0.106313 -0.934857
v 2.177395 -0.106313 0.934858
v 2.177395 -0.106313 1.059145
v 2.302274 -0.106313 0.934858
v 2.302274 -0.106313 1.059145
v -2.177395 -0.106313 0.934858
v -2.302274 -0.106313 0.934858
v -2.177395 -0.106313 1.059145
v -2.302274 -0.106313 1.059145
v -2.322274 0.813487 1.079145
v -2.177395 0.813487 1.079145
v -2.177395 0.961791 1.079145
v -2.322274 0.961791 1.079145
v -2.322274 0.961791 -1.079145
v -2.177395 0.961791 -1.079145
v -2.177395 0.813487 -1.079145
v -2.322274 0.813487 -1.079145
v 2.322274 0.813487 -1.079145
v 2.322274 0.813487 -0.934857
v 2.322274 0.961791 -1.079145
v 2.322274 0.961791 -0.934857
v -2.322274 0.813487 -0.934857
v -2.322274 0.961791 -0.934857
v 2.177395 0.813487 1.079145
v 2.322274 0.813487 1.079145
v 2.322274 0.961791 1.079145
v 2.177395 0.961791 1.079145
v 2.177395 0.961791 -1.079145
v 2.177395 0.813487 -1.079145
v -2.322274 0.813487 0.934858
v -2.322274 0.961791 0.934858
v 2.322274 0.813487 0.934858
v 2.322274 0.961791 0.934858
v -2.345747 0.91296 1.103395
v 2.345747 0.91296 1.103395
v -2.345747 0.91296 -1.103395
v 2.345747 0.91296 -1.103395
v -2.345747 0.986699 1.103395
v -2.344324 0.992009 1.101973
v -2.340437 0.995896 1.098086
v -2.335127 0.997319 1.092776
v 2.335127 0.997319 1.092776
v 2.340437 0.995896 1.098086
v 2.344324 0.992009 1.101973
v 2.345747 0.986699 1.103395
v -2.335127 0.997319 -1.092776
v -2.340437 0.995896 -1.098086
v -2.344324 0.992009 -1.101973
v -2.345747 0.986699 -1.103395
v 2.335127 0.997319 -1.092776
v 2.340437 0.995896 -1.098086
v 2.344324 0.992009 -1.101973
v 2.345747 0.986699 -1.103395
#end vertices

#begin 260 textures vertices 
vt 0.001953125 0.6928656 0
vt 0.3176173 0.8715246 0
vt 0.3176173 0.8987925 0
vt 0.682131 0.7162271 0
vt 0.9940647 0.001953125 0
vt 0.001953125 0.8481631 0
vt 0.001953125 0.8754309 0
vt 0.9707031 0.682131 0
vt 0.3275625 0.8884127 0
vt 0.6769165 0.8059302 0
vt 0.3123204 0.9334852 0
vt 0.007167617 0.8098364 0
vt 0.6582031 0.671702 0
vt 0.6582031 0.001953125 0
vt 0.9632735 0.001953125 0
vt 0.9632735 0.671702 0
vt 0.4566343 0.9303384 0
vt 0.4175718 0.9555478 0
vt 0.9399911 0.6908383 0
vt 0.9399968 0.8434128 0
vt 0.8698034 0.6908323 0
vt 0.8698034 0.8434127 0
vt 0.6933594 0.7912348 0
vt 0.9655085 0.6901696 0
vt 0.8147238 0.9409343 0
vt 0.9399968 0.8392747 0
vt 0.8698034 0.8392746 0
vt 0.8147238 0.8635719 0
vt 0.6556818 0.9409343 0
vt 0.9399968 0.6949882 0
vt 0.8698034 0.6949704 0
vt 0.6556818 0.8635719 0
vt 0.651121 0.9363952 0
vt 0.9358794 0.690833 0
vt 0.9358782 0.6949706 0
vt 0.9358783 0.8392747 0
vt 0.9358783 0.8434128 0
vt 0.8192845 0.9363952 0
vt 0.8147238 0.9363952 0
vt 0.6556818 0.9363952 0
vt 0.651121 0.868111 0
vt 0.8739219 0.6908323 0
vt 0.8739219 0.6949704 0
vt 0.8739219 0.8392746 0
vt 0.8739219 0.8434127 0
vt 0.8192845 0.868111 0
vt 0.8147238 0.868111 0
vt 0.6556818 0.868111 0
vt 0.8339844 0.7912348 0
vt 0.8339844 0.7729919 0
vt 0.8521409 0.7729919 0
vt 0.8521409 0.7912348 0
vt 0.8339844 0.8133839 0
vt 0.8521409 0.8133839 0
vt 0.8339844 0.795141 0
vt 0.8521409 0.795141 0
vt 0.8300781 0.8355331 0
vt 0.8482346 0.8355331 0
vt 0.8300781 0.8172902 0
vt 0.8482346 0.8172902 0
vt 0.8261719 0.8849043 0
vt 0.8261719 0.9031472 0
vt 0.8443283 0.8849043 0
vt 0.8443283 0.9031472 0
vt 0.001953125 0.7457046 0
vt 0.02311773 0.7457046 0
vt 0.02311773 0.7673695 0
vt 0.6375587 0.869828 0
vt 0.6804504 0.7417983 0
vt 0.6592858 0.7417983 0
vt 0.6592858 0.7201334 0
vt 0.6804504 0.7201334 0
vt 0.3172462 0.9026987 0
vt 0.2961679 0.9026987 0
vt 0.3172462 0.9243637 0
vt 0.2961679 0.9243637 0
vt 0.3433439 0.8481631 0
vt 0.3433439 0.869828 0
vt 0.6592858 0.7457046 0
vt 0.6804504 0.7457046 0
vt 0.6804504 0.7673695 0
vt 0.6592858 0.7673695 0
vt 0.02311773 0.7417983 0
vt 0.02311773 0.7201334 0
vt 0.6164806 0.8481631 0
vt 0.6164806 0.869828 0
vt 0.02303124 0.9026987 0
vt 0.02303124 0.9243637 0
vt 0.6524563 0.6873085 0
vt 0.6524563 0.001953125 0
vt 0.001953125 0.7820479 0
vt 0.3300781 0.001953125 0
vt 0.001953125 0.6889592 0
vt 0.002647296 0.6884773 0
vt 0.003407195 0.6877956 0
vt 0.00420594 0.6870056 0
vt 0.004206285 0.003907209 0
vt 0.003407553 0.003117207 0
vt 0.002647566 0.002435727 0
vt 0.001953125 0.001953125 0
vt 0.3238178 0.6870052 0
vt 0.3246165 0.6877952 0
vt 0.3253765 0.6884767 0
vt 0.001953125 0.7712758 0
vt 0.3238181 0.003906794 0
vt 0.3246169 0.003116802 0
vt 0.3253768 0.002435135 0
vt 0.3222656 0.8737343 0
vt 0.6425781 0.8481631 0
vt 0.3260709 0.00195323 0
vt 0.001953125 0.7859542 0
vt 0.3260709 0.6889593 0
vt 0.9649563 0.8481631 0
vt 0.9649563 0.8589352 0
vt 0.3300781 0.6873085 0
vt 0.6873085 0.7712758 0
vt 0.6873085 0.7820479 0
vt 0.3222656 0.8845064 0
vt 0.001953125 0.7967263 0
vt 0.6446438 0.8845064 0
vt 0.6873085 0.7967263 0
vt 0.6425781 0.8589352 0
vt 0.6873085 0.7859542 0
vt 0.6446438 0.8737343 0
vt 0.8691406 0.8440754 0
vt 0.9406593 0.6949701 0
vt 0.8739219 0.8440754 0
vt 0.9406553 0.6901813 0
vt 0.8739219 0.6901696 0
vt 0.9358792 0.6901702 0
vt 0.8691406 0.6901696 0
vt 0.9358783 0.8440756 0
vt 0.9406595 0.8440756 0
vt 0.9406595 0.8392747 0
vt 0.8691406 0.6949704 0
vt 0.8691406 0.8392746 0
vt 0.001953125 0.7673695 0
vt 0.001953125 0.9243637 0
vt 0.6375587 0.8481631 0
vt 0.6503906 0.9416647 0
vt 0.8200149 0.868111 0
vt 0.6556818 0.9416647 0
vt 0.8200149 0.9363952 0
vt 0.8147238 0.9416647 0
vt 0.8200149 0.9416647 0
vt 0.001953125 0.9026987 0
vt 0.8200149 0.8628415 0
vt 0.001953125 0.7201334 0
vt 0.001953125 0.7417983 0
vt 0.8147238 0.8628415 0
vt 0.6556818 0.8628415 0
vt 0.6503906 0.8628415 0
vt 0.3222656 0.8481631 0
vt 0.6503906 0.868111 0
vt 0.6503906 0.9363952 0
vt 0.3222656 0.869828 0
vt 0.4175718 0.9373914 0
vt 0.2769468 0.9556343 0
vt 0.1425781 0.9595406 0
vt 0.2769468 0.9373914 0
vt 0.1425781 0.977697 0
vt 0.988946 0.6860372 0
vt 0.2769468 0.9595406 0
vt 0.1425781 0.9373914 0
vt 0.1425781 0.9556343 0
vt 0.2832031 0.9373914 0
vt 0.2832031 0.9555478 0
vt 0.9707031 0.8204059 0
vt 0.2769468 0.977697 0
vt 0.988946 0.8204059 0
vt 0.8192845 0.9409343 0
vt 0.9707031 0.6860372 0
vt 0.9472656 0.6901696 0
vt 0.9707031 0.9586808 0
vt 0.9655085 0.8245383 0
vt 0.8261719 0.8628415 0
vt 0.9888597 0.9586808 0
vt 0.8238218 0.8355331 0
vt 0.9605406 0.880998 0
vt 0.8238218 0.8172902 0
vt 0.9888597 0.8243121 0
vt 0.6894531 0.8355331 0
vt 0.9707031 0.8243121 0
vt 0.9472656 0.8245383 0
vt 0.8192845 0.8635719 0
vt 0.9605406 0.8628415 0
vt 0.8261719 0.880998 0
vt 0.6894531 0.8172902 0
vt 0.001953125 0.9776971 0
vt 0.001953125 0.9373914 0
vt 0.001953125 0.9556343 0
vt 0.4628906 0.9120955 0
vt 0.5972593 0.9120955 0
vt 0.1363218 0.9556343 0
vt 0.8277281 0.7912348 0
vt 0.4628906 0.9302521 0
vt 0.8277281 0.7729919 0
vt 0.001953125 0.9595406 0
vt 0.6933594 0.7729919 0
vt 0.1363218 0.9595406 0
vt 0.1363218 0.9776971 0
vt 0.1363218 0.9373914 0
vt 0.5972593 0.9302521 0
vt 0.651121 0.8635719 0
vt 0.6933594 0.8133839 0
vt 0.4175718 0.9776105 0
vt 0.651121 0.9409343 0
vt 0.4175718 0.9594541 0
vt 0.6933594 0.795141 0
vt 0.5581968 0.9342447 0
vt 0.3222656 0.9303384 0
vt 0.2832031 0.9594541 0
vt 0.8277281 0.8133839 0
vt 0.2832031 0.9776105 0
vt 0.4566343 0.9120955 0
vt 0.5581968 0.9524011 0
vt 0.8277281 0.795141 0
vt 0.4238281 0.9342447 0
vt 0.4238281 0.9524011 0
vt 0.3222656 0.9120955 0
vt 0.6582031 0.6756082 0
vt 0.001953125 0.9282699 0
vt 0.001953125 0.8190403 0
vt 0.001953125 0.8006325 0
vt 0.3222656 0.8975342 0
vt 0.001953125 0.8336017 0
vt 0.6379298 0.8936279 0
vt 0.682131 0.8151341 0
vt 0.007167617 0.8059302 0
vt 0.3222656 0.8936279 0
vt 0.682131 0.8006325 0
vt 0.007250009 0.9334852 0
vt 0.6326329 0.8884127 0
vt 0.3176173 0.9282699 0
vt 0.001953125 0.8151341 0
vt 0.6769165 0.8098364 0
vt 0.671702 0.8296954 0
vt 0.9632735 0.6862633 0
vt 0.671702 0.8442568 0
vt 0.627336 0.9081893 0
vt 0.001953125 0.8442568 0
vt 0.9632735 0.6756082 0
vt 0.6582031 0.6862633 0
vt 0.671702 0.8190403 0
vt 0.627336 0.8975342 0
vt 0.001953125 0.8296954 0
vt 0.671702 0.8336017 0
vt 0.3222656 0.9081893 0
vt 0.6933594 0.7690856 0
vt 0.8634038 0.7690856 0
vt 0.8634038 0.6901696 0
vt 0.6933594 0.6901696 0
vt 0.9940647 0.682131 0
vt 0.001953125 0.8715246 0
vt 0.001953125 0.7162271 0
vt 0.3176173 0.8754309 0
vt 0.9707031 0.001953125 0
vt 0.001953125 0.8987925 0
vt 0.682131 0.6928656 0
vt 0.3176173 0.8481631 0
#end 260 textures vertices 

#begin 368 normals 
vn 0 0 1
vn 0 0 1
vn 0 0 1
vn 0 0 1
vn 0 1 0
vn 0 1 0
vn 0 1 0
vn 0 1 0
vn 0 0 -1
vn 0 0 -1
vn 0 0 -1
vn 0 0 -1
vn 0 -1 0
vn 0 -1 0
vn 0 -1 0
vn 0 -1 0
vn 1 0 0
vn 1 0 0
vn 1 0 0
vn 1 0 0
vn -1 0 0
vn -1 0 0
vn -1 0 0
vn -1 0 0
vn 0 0.999857 0.016918
vn 0 0.999857 0.016918
vn 0 0.999857 0.016918
vn 0 0.999857 0.016918
vn 0.017185 0.999852 0
vn 0.017185 0.999852 0
vn 0.017185 0.999852 0
vn 0.017185 0.999852 0
vn 0 0.999857 -0.016917
vn 0 0.999857 -0.016917
vn 0 0.999857 -0.016917
vn 0 0.999857 -0.016917
vn -0.017185 0.999852 0
vn -0.017185 0.999852 0
vn -0.017185 0.999852 0
vn -0.017185 0.999852 0
vn 0 0 -1
vn 0 0 -1
vn 0 0 -1
vn 0 0 -1
vn -1 0 0
vn -1 0 0
vn -1 0 0
vn -1 0 0
vn 0 0 1
vn 0 0 1
vn 0 0 1
vn 0 0 1
vn 1 0 0
vn 1 0 0
vn 1 0 0
vn 1 0 0
vn 0 0 1
vn 0 0 1
vn 0 0 1
vn 0 0 1
vn 0 0 -1
vn 0 0 -1
vn 0 0 -1
vn 0 0 -1
vn 0 -1 0
vn 0 -1 0
vn 0 -1 0
vn 0 -1 0
vn 1 0 0
vn 1 0 0
vn 1 0 0
vn 1 0 0
vn -1 0 0
vn -1 0 0
vn -1 0 0
vn -1 0 0
vn 0 1 0
vn 0 1 0
vn 0 1 0
vn 0 1 0
vn 0 0 1
vn 0 0 1
vn 0 0 1
vn 0 0 1
vn 0 1 0
vn 0 1 0
vn 0 1 0
vn 0 1 0
vn 0 0 -1
vn 0 0 -1
vn 0 0 -1
vn 0 0 -1
vn 0 -1 0
vn 0 -1 0
vn 0 -1 0
vn 0 -1 0
vn 0 0 1
vn 0 0 1
vn 0 0 1
vn 0 0 1
vn 0 1 0
vn 0 1 0
vn 0 1 0
vn 0 1 0
vn 0 0 -1
vn 0 0 -1
vn 0 0 -1
vn 0 0 -1
vn 0 -1 0
vn 0 -1 0
vn 0 -1 0
vn 0 -1 0
vn -1 0 0
vn -1 0 0
vn -1 0 0
vn -1 0 0
vn 0 1 0
vn 0 1 0
vn 0 1 0
vn 0 1 0
vn 0 1 0
vn 0 1 0
vn 0 1 0
vn 0 1 0
vn 0 1 0
vn 0 1 0
vn 0 1 0
vn 0 1 0
vn 1 0 0
vn 1 0 0
vn 1 0 0
vn 1 0 0
vn 0 -1 0
vn 0 -1 0
vn 0 -1 0
vn 0 -1 0
vn 0 -1 0
vn 0 -1 0
vn 0 -1 0
vn 0 -1 0
vn 0 -1 0
vn 0 -1 0
vn 0 -1 0
vn 0 -1 0
vn -1 0 0
vn -1 0 0
vn -1 0 0
vn -1 0 0
vn 0 1 0
vn 0 1 0
vn 0 1 0
vn 0 1 0
vn 0 1 0
vn 0 1 0
vn 0 1 0
vn 0 1 0
vn 0 1 0
vn 0 1 0
vn 0 1 0
vn 0 1 0
vn 1 0 0
vn 1 0 0
vn 1 0 0
vn 1 0 0
vn 0 -1 0
vn 0 -1 0
vn 0 -1 0
vn 0 -1 0
vn 0 -1 0
vn 0 -1 0
vn 0 -1 0
vn 0 -1 0
vn 0 -1 0
vn 0 -1 0
vn 0 -1 0
vn 0 -1 0
vn 0 0 -1
vn 0 0 -1
vn 0 0 -1
vn 0 0 -1
vn 1 0 0
vn 1 0 0
vn 1 0 0
vn 1 0 0
vn 0 0 1
vn 0 0 1
vn 0 0 1
vn 0 0 1
vn -1 0 0
vn -1 0 0
vn -1 0 0
vn -1 0 0
vn -1 0 0
vn -1 0 0
vn -1 0 0
vn -1 0 0
vn 0 0 -1
vn 0 0 -1
vn 0 0 -1
vn 0 0 -1
vn 1 0 0
vn 1 0 0
vn 1 0 0
vn 1 0 0
vn 0 0 1
vn 0 0 1
vn 0 0 1
vn 0 0 1
vn -1 0 0
vn -1 0 0
vn -1 0 0
vn -1 0 0
vn 0 0 -1
vn 0 0 -1
vn 0 0 -1
vn 0 0 -1
vn 1 0 0
vn 1 0 0
vn 1 0 0
vn 1 0 0
vn 0 0 1
vn 0 0 1
vn 0 0 1
vn 0 0 1
vn 0 0 -1
vn 0 0 -1
vn 0 0 -1
vn 0 0 -1
vn 1 0 0
vn 1 0 0
vn 1 0 0
vn 1 0 0
vn 0 0 1
vn 0 0 1
vn 0 0 1
vn 0 0 1
vn -1 0 0
vn -1 0 0
vn -1 0 0
vn -1 0 0
vn 0 -1 0
vn 0 -1 0
vn 0 -1 0
vn 0 -1 0
vn 0 1 0
vn 0 1 0
vn 0 1 0
vn 0 1 0
vn 0 1 -2e-06
vn 0 1 -2e-06
vn 0 1 -2e-06
vn 0 1 -2e-06
vn 0 -1 0
vn 0 -1 0
vn 0 -1 0
vn 0 -1 0
vn 0 -1 0
vn 0 -1 0
vn 0 -1 0
vn 0 -1 0
vn 0 1 0
vn 0 1 0
vn 0 1 0
vn 0 1 0
vn 0 -1 0
vn 0 -1 0
vn 0 -1 0
vn 0 -1 0
vn 0 1 0
vn 0 1 0
vn 0 1 0
vn 0 1 0
vn 0 -1 0
vn 0 -1 0
vn 0 -1 0
vn 0 -1 0
vn 0 1 -1e-06
vn 0 1 -1e-06
vn 0 1 -1e-06
vn 0 1 -1e-06
vn 0 1 0
vn 0 1 0
vn 0 1 0
vn 0 1 0
vn 0 -1 0
vn 0 -1 0
vn 0 -1 0
vn 0 -1 0
vn 0 -1 0
vn 0 -1 0
vn 0 -1 0
vn 0 -1 0
vn 0 1 0
vn 0 1 0
vn 0 1 0
vn 0 1 0
vn 0 1 0
vn 0 1 0
vn 0 1 0
vn 0 1 0
vn 0 -1 0
vn 0 -1 0
vn 0 -1 0
vn 0 -1 0
vn 0 -1 0
vn 0 -1 0
vn 0 -1 0
vn 0 -1 0
vn 0 1 0
vn 0 1 0
vn 0 1 0
vn 0 1 0
vn 0 -1 0
vn 0 -1 0
vn 0 -1 0
vn 0 -1 0
vn 0 1 0
vn 0 1 0
vn 0 1 0
vn 0 1 0
vn 0 -1 0
vn 0 -1 0
vn 0 -1 0
vn 0 -1 0
vn 0 1 0
vn 0 1 0
vn 0 1 0
vn 0 1 0
vn 0 -1 0
vn 0 -1 0
vn 0 -1 0
vn 0 -1 0
vn 0 1 0
vn 0 1 0
vn 0 1 0
vn 0 1 0
vn 0 -1 0
vn 0 -1 0
vn 0 -1 0
vn 0 -1 0
vn -0.000452 1 0.000965
vn -0.209973 0.869422 0.447233
vn 0.209973 0.869422 0.447233
vn 0.000452 1 0.000965
vn -0.360562 0.530666 0.767065
vn 0.360562 0.530666 0.767065
vn 0 0.015255 0.999884
vn 0 0.015255 0.999884
vn 0 0 1
vn 0 0 1
vn 0 0.015256 -0.999884
vn 0 0.015256 -0.999884
vn 0 0 -1
vn 0 0 -1
vn 1 0 0
vn 1 0 0
vn 0.999884 0.015253 0
vn 0.999884 0.015253 0
vn -1 0 0
vn -1 0 0
vn -0.999884 0.015253 0
vn -0.999884 0.015253 0
vn 0.000452 1 -0.000965
vn -0.000452 1 -0.000965
vn 0.360568 0.530667 -0.767062
vn 0.209974 0.869416 -0.447243
vn -0.360568 0.530667 -0.767062
vn -0.209974 0.869416 -0.447243
#end 368 normals 

#begin 102 faces
g pCube1 couch_table_LP
s off
f 1/1/1 2/259/2 4/4/3 3/255/4 
f 13/13/5 14/14/6 15/15/7 16/16/8 
f 5/5/9 6/253/10 8/8/11 7/257/12 
f 7/252/13 8/251/14 2/250/15 1/249/16 
f 2/2/17 8/254/18 6/6/19 4/260/20 
f 7/7/21 1/256/22 3/3/23 5/258/24 
f 3/224/25 4/231/26 10/10/27 9/229/28 
f 4/222/29 6/234/30 11/11/31 10/232/32 
f 6/228/33 5/235/34 12/12/35 11/236/36 
f 5/227/37 3/230/38 9/9/39 12/233/40 
f 9/226/41 10/247/42 14/239/43 13/241/44 
f 10/225/45 11/245/46 15/240/47 14/248/48 
f 11/223/49 12/244/50 16/237/51 15/246/52 
f 12/221/53 9/242/54 13/238/55 16/243/56 
g couch_table_LP pCube2
s off
f 65/65/57 66/66/58 67/67/59 68/137/60 
f 69/69/61 70/70/62 71/71/63 72/72/64 
f 49/49/65 50/50/66 51/51/67 52/52/68 
f 74/74/69 73/73/70 75/75/71 76/76/72 
f 72/153/73 77/77/74 78/78/75 69/156/76 
f 31/31/77 21/21/78 42/42/79 43/43/80 
f 79/79/81 80/80/82 81/81/83 82/82/84 
f 22/22/85 27/27/86 44/44/87 45/45/88 
f 84/84/89 83/83/90 75/149/91 73/148/92 
f 54/54/93 53/53/94 55/55/95 56/56/96 
f 66/66/97 79/79/98 82/82/99 67/67/100 
f 27/27/101 31/31/102 43/43/103 44/44/104 
f 71/71/105 70/70/106 83/83/107 84/84/108 
f 48/48/109 32/32/110 28/28/111 47/47/112 
f 85/85/113 65/139/114 68/68/115 86/86/116 
f 35/35/117 34/34/118 19/19/119 30/30/120 
f 36/36/121 35/35/122 30/30/123 26/26/124 
f 37/37/125 36/36/126 26/26/127 20/20/128 
f 80/146/129 87/87/130 88/88/131 81/138/132 
f 58/58/133 57/57/134 59/59/135 60/60/136 
f 29/29/137 40/40/138 39/39/139 25/25/140 
f 62/62/141 61/61/142 63/63/143 64/64/144 
f 77/77/145 85/85/146 86/86/147 78/78/148 
f 43/43/149 42/42/150 34/34/151 35/35/152 
f 44/44/153 43/43/154 35/35/155 36/36/156 
f 45/45/157 44/44/158 36/36/159 37/37/160 
f 87/87/161 74/74/162 76/76/163 88/88/164 
f 39/39/165 47/47/166 46/46/167 38/38/168 
f 40/40/169 48/48/170 47/47/171 39/39/172 
f 41/41/173 48/48/174 40/40/175 33/33/176 
f 23/23/177 32/199/178 50/197/179 49/195/180 
f 32/200/181 48/201/182 51/189/183 50/198/184 
f 48/202/185 41/194/186 52/191/187 51/190/188 
f 41/193/189 23/203/190 49/196/191 52/192/192 
f 47/177/193 28/174/194 53/183/195 54/181/196 
f 28/173/197 24/24/198 55/175/199 53/184/200 
f 24/186/201 46/179/202 56/187/203 55/176/204 
f 46/180/205 47/178/206 54/182/207 56/188/208 
f 25/161/209 39/159/210 57/163/211 58/169/212 
f 39/160/213 38/158/214 59/165/215 57/164/216 
f 38/157/217 18/18/218 60/167/219 59/166/220 
f 18/172/221 25/162/222 58/170/223 60/168/224 
f 33/205/225 40/209/226 61/217/227 62/213/228 
f 40/210/229 29/216/230 63/219/231 61/218/232 
f 29/215/233 17/17/234 64/211/235 63/220/236 
f 17/208/237 33/206/238 62/214/239 64/212/240 
f 17/207/241 29/29/242 66/142/243 65/140/244 
f 30/30/245 19/19/246 68/128/247 67/126/248 
f 21/21/249 31/31/250 70/135/251 69/131/252 
f 32/32/253 23/204/254 72/152/255 71/151/256 
f 46/46/257 24/185/258 73/147/259 74/141/260 
f 22/22/261 45/45/262 76/127/263 75/125/264 
f 23/204/265 41/41/266 77/154/267 72/152/268 
f 42/42/269 21/21/270 69/131/271 78/129/272 
f 25/25/273 18/171/274 80/145/275 79/144/276 
f 20/20/277 26/26/278 82/134/279 81/133/280 
f 27/27/281 22/22/282 75/125/283 83/136/284 
f 24/185/285 28/28/286 84/150/287 73/147/288 
f 29/29/289 25/25/290 79/144/291 66/142/292 
f 26/26/293 30/30/294 67/126/295 82/134/296 
f 31/31/297 27/27/298 83/136/299 70/135/300 
f 28/28/301 32/32/302 71/151/303 84/150/304 
f 33/33/305 17/207/306 65/140/307 85/155/308 
f 19/19/309 34/34/310 86/130/311 68/128/312 
f 18/171/313 38/38/314 87/143/315 80/145/316 
f 37/37/317 20/20/318 81/133/319 88/132/320 
f 41/41/321 33/33/322 85/155/323 77/154/324 
f 34/34/325 42/42/326 78/129/327 86/130/328 
f 38/38/329 46/46/330 74/141/331 87/143/332 
f 45/45/333 37/37/334 88/132/335 76/127/336 
g couch_table_LP pCube3
s off
f 91/115/337 92/92/338 90/90/339 89/89/340 
s 1
f 96/96/341 95/95/342 98/98/343 97/97/344 
f 95/95/342 94/94/345 99/99/346 98/98/343 
f 94/94/345 93/93/347 100/100/348 99/99/346 
f 89/121/349 90/119/350 100/111/348 93/123/347 
f 104/104/351 108/116/352 92/117/353 91/91/354 
f 90/120/355 92/118/356 108/108/357 100/124/358 
f 91/114/359 89/122/360 93/109/361 104/113/362 
f 105/105/363 101/101/364 96/96/341 97/97/344 
f 99/99/346 100/100/358 108/110/357 107/107/365 
f 97/97/344 98/98/343 106/106/366 105/105/363 
f 98/98/343 99/99/346 107/107/365 106/106/366 
f 93/93/361 94/94/345 103/103/367 104/112/362 
f 94/94/345 95/95/342 102/102/368 103/103/367 
f 95/95/342 96/96/341 101/101/364 102/102/368 
f 104/112/351 103/103/367 107/107/365 108/110/352 
f 103/103/367 102/102/368 106/106/366 107/107/365 
f 102/102/368 101/101/364 105/105/363 106/106/366 
#end 102 faces

#ZOMPROPERTIES_04{
#ZOMPROPERTIES_04 table {Mesh table {Islands table {0 table {TopoStable table {Pack table {Scaling table {Factor doubl
#ZOMPROPERTIES_04 e 0.25 } } } PolyIDs ints { 3 } } 1 table {TopoStable table {Pack table {Scaling table {Max double 1
#ZOMPROPERTIES_04  Factor double 0.25 } } } PolyIDs ints { 19 67 81 37 29 61 77 73 69 31 30 38 39 21 25 74 70 65 83 79
#ZOMPROPERTIES_04  62 } } 2 table {TopoStable table {Pack table {Scaling table {Factor double 0.25 } } } PolyIDs ints 
#ZOMPROPERTIES_04 { 27 75 63 66 80 76 60 72 68 78 82 64 71 41 34 42 43 } } } SymPlane table {Point vector3d 0 0 0 Norm
#ZOMPROPERTIES_04 al vector3d 1 0 0 Threshold double 0.01 Enabled bool false EdgeID int -1 SymEdgeID int -1 UPos doubl
#ZOMPROPERTIES_04 e 0.5 LocalMode bool false } RootGroup CSubMeshGroup {Children table {Tile_0_0 CSubMeshGroup {Childr
#ZOMPROPERTIES_04 en table {} BBoxUV box3d 0 0 0 0 0 0 BBox3D box3d 0 0 0 0 0 0 Area3D double 0 AreaUV double 0.868564
#ZOMPROPERTIES_04  IsRoot bool false TopoStable table {Selected bool false Box box3d 0 1 0 1 0 1 U int 0 V int 0 NU in
#ZOMPROPERTIES_04 t 0 NV int 0 Tiling vector3d 1 1 1 TileRatioMode string "1:1" Pack table {BoxFrameLocked bool false 
#ZOMPROPERTIES_04 BoxFrameEdit bool false } } IsTile bool true PolyIDs ints { 35 33 23 16 9 7 54 52 57 59 50 48 47 45 
#ZOMPROPERTIES_04 58 46 44 55 56 51 49 53 13 11 91 90 8 6 17 40 32 18 36 28 12 10 5 4 89 88 19 67 81 37 29 61 77 73 69
#ZOMPROPERTIES_04  31 30 38 39 21 25 74 70 65 83 79 62 27 75 63 66 80 76 60 72 68 78 82 64 71 41 34 42 43 3 15 26 22 1
#ZOMPROPERTIES_04 4 24 20 2 0 1 84 85 94 101 98 100 99 93 87 96 86 97 95 92 } } } BBoxUV box3d 0 0 0 0 0 0 BBox3D box3
#ZOMPROPERTIES_04 d 0 0 0 0 0 0 Area3D double 0 AreaUV double 0 IsRoot bool true TopoStable table {Selected bool false
#ZOMPROPERTIES_04  Box box3d 0 1 0 1 0 1 U int 0 V int 0 NU int 1 NV int 1 Tiling vector3d 1 1 1 TileRatioMode string 
#ZOMPROPERTIES_04 "1:1" Pack table {Rotate table {Mode int 2 Min double 0 Max double 90 Step double 90 } PaddingSize d
#ZOMPROPERTIES_04 ouble 0.00390625 MarginSize double 0.00195312 Resolution int 256 MapResolution int 4096 Scaling tabl
#ZOMPROPERTIES_04 e {TexelDensity double 1024 Mode int 0 } LayoutScalingMode int 2 MaxMutations int 1 } } IsTile bool 
#ZOMPROPERTIES_04 false PolyIDs ints { } } Maps table {Density table {PrimType string "Polygon" Size int 1 DefaultValu
#ZOMPROPERTIES_04 e double 1 ScaleType string "Log" MergeMode string "Average" MinValue double 0.1 MaxValue double 4 D
#ZOMPROPERTIES_04 ata doubles { r 102 1 } } Pin table {PrimType string "Vertex" Size int 1 DefaultValue double 0 Scale
#ZOMPROPERTIES_04 Type string "Normalized" MergeMode string "Max" MinValue double 0 MaxValue double 1 Data doubles { r
#ZOMPROPERTIES_04  260 0 } } Protect table {PrimType string "Vertex" Size int 1 DefaultValue double 0 ScaleType string
#ZOMPROPERTIES_04  "Normalized" MergeMode string "Average" MinValue double -1 MaxValue double 1 Data doubles { r 260 0
#ZOMPROPERTIES_04  } } } } }
#ZOMPROPERTIES_04}


#ZOMSCENE_01{
#ZOMSCENE_01 CScene {Settings table {AxisSystem table {UpVector string "y" } Unit string "cm" } }
#ZOMSCENE_01}

#begin 0 fatal error vertex (that RizomUV cannot handle)
#end 0 fatal error vertex (that RizomUV cannot handle)

#begin 0 error vertex
#end 0 error vertex
